<?xml version="1.0" encoding="UTF-8" standalone="no"?>
<!-- Created with Inkscape (http://www.inkscape.org/) -->

<svg
   width="51.473049mm"
   height="51.473049mm"
   viewBox="0 0 51.473049 51.473049"
   version="1.1"
   id="svg1"
   inkscape:version="1.4 (e7c3feb100, 2024-10-09)"
   sodipodi:docname="icons.svg"
   inkscape:export-batch-path="../public/icons"
   inkscape:export-batch-name=""
   xml:space="preserve"
   xmlns:inkscape="http://www.inkscape.org/namespaces/inkscape"
   xmlns:sodipodi="http://sodipodi.sourceforge.net/DTD/sodipodi-0.dtd"
   xmlns:xlink="http://www.w3.org/1999/xlink"
   xmlns="http://www.w3.org/2000/svg"
   xmlns:svg="http://www.w3.org/2000/svg"><sodipodi:namedview
     id="namedview1"
     pagecolor="#ffffff"
     bordercolor="#000000"
     borderopacity="0.25"
     inkscape:showpageshadow="2"
     inkscape:pageopacity="0.0"
     inkscape:pagecheckerboard="0"
     inkscape:deskcolor="#d1d1d1"
     inkscape:document-units="mm"
     inkscape:zoom="3.7745298"
     inkscape:cx="554.10876"
     inkscape:cy="487.21301"
     inkscape:window-width="2560"
     inkscape:window-height="1343"
     inkscape:window-x="2560"
     inkscape:window-y="2220"
     inkscape:window-maximized="1"
     inkscape:current-layer="layer3-5-1" /><defs
     id="defs1" /><g
     inkscape:groupmode="layer"
     id="layer3-5-6"
     inkscape:label="cisco"
     transform="translate(-166.08007,-60.901439)"><circle
       style="fill:#42b5ac;fill-opacity:1;stroke:#000000;stroke-width:0.668543;stroke-dasharray:none;stroke-opacity:1"
       id="path4-5-2"
       cx="191.81659"
       cy="86.637962"
       r="25.402252"
       inkscape:label="Background" /><g
       style="fill:#c4122e"
       id="g1"
       transform="matrix(0.58902637,0,0,0.58902637,170.61329,75.272944)"><path
         d="m 23.521,25.2449 h -3.157 v 12.511 h 3.157 z"
         style="fill:none;fill-opacity:1;stroke:#000000;stroke-width:1.34756;stroke-dasharray:none;stroke-opacity:1"
         id="path268" /><use
         xlink:href="#path284"
         transform="translate(32.9532)"
         id="use360"
         style="fill:none;fill-opacity:1;stroke:#000000;stroke-width:1.34756;stroke-dasharray:none;stroke-opacity:1" /><path
         d="m 16.0236,28.8299 c -0.127,-0.066 -1.142,-0.668 -2.652,-0.668 -2.045,0 -3.46,1.421 -3.46,3.337 0,1.859 1.356,3.34 3.46,3.34 1.484,0 2.516,-0.589 2.652,-0.664 v 3.358 c -0.392,0.111 -1.469,0.445 -2.879,0.445 -3.549,0 -6.662,-2.448 -6.662,-6.479 0,-3.736 2.82,-6.476 6.662,-6.476 1.486,0 2.582,0.361 2.879,0.449 z"
         id="path284"
         style="fill:none;fill-opacity:1;stroke:#000000;stroke-width:1.34756;stroke-dasharray:none;stroke-opacity:1" /><path
         d="m 58.9084,28.2088 c -1.873,0 -3.264,1.474 -3.264,3.29 0,1.82 1.391,3.293 3.264,3.293 1.871,0 3.266,-1.473 3.266,-3.293 0,-1.816 -1.395,-3.29 -3.266,-3.29 m 6.611,3.29 c 0,3.579 -2.763,6.479 -6.611,6.479 -3.848,0 -6.607,-2.9 -6.607,-6.479 0,-3.573 2.759,-6.476 6.607,-6.476 3.848,0 6.611,2.903 6.611,6.476"
         id="path288"
         style="fill:none;fill-opacity:1;stroke:#000000;stroke-width:1.34756;stroke-dasharray:none;stroke-opacity:1" /><path
         d="m 35.4934,28.0887 c -0.047,-0.015 -1.376,-0.382 -2.468,-0.382 -1.265,0 -1.953,0.424 -1.953,1.025 0,0.762 0.928,1.028 1.447,1.192 l 0.871,0.277 c 2.049,0.652 2.983,2.055 2.983,3.579 0,3.143 -2.764,4.199 -5.18,4.199 -1.679,0 -3.252,-0.309 -3.407,-0.342 v -2.879 c 0.278,0.07 1.602,0.465 2.981,0.465 1.571,0 2.293,-0.459 2.293,-1.168 0,-0.634 -0.625,-1 -1.408,-1.246 -0.191,-0.064 -0.478,-0.154 -0.674,-0.218 -1.758,-0.556 -3.224,-1.589 -3.224,-3.66 0,-2.34 1.752,-3.911 4.662,-3.911 1.537,0 2.983,0.373 3.077,0.398 z"
         id="path292"
         style="fill:none;fill-opacity:1;stroke:#000000;stroke-width:1.34756;stroke-dasharray:none;stroke-opacity:1" /><g
         style="fill:#000000"
         id="g383"><path
           d="m 3.135,11.7996 c 0,-0.862 -0.704,-1.561 -1.567,-1.561 -0.863,0 -1.568,0.699 -1.568,1.561 v 3.284 c 0,0.867 0.705,1.567 1.568,1.567 0.863,0 1.567,-0.7 1.567,-1.567 z"
           id="path296"
           style="fill:#000000" /><path
           d="m 11.7443,7.4891 c 0,-0.862 -0.704,-1.563 -1.567,-1.563 -0.864,0 -1.568,0.701 -1.568,1.563 v 7.595 c 0,0.867 0.704,1.566 1.568,1.566 0.863,0 1.567,-0.699 1.567,-1.566 z"
           id="path300"
           style="fill:#000000" /><path
           d="m 20.3537,1.5916 c 0,-0.862 -0.704,-1.562 -1.567,-1.562 -0.864,0 -1.568,0.7 -1.568,1.562 v 16.613 c 0,0.867 0.704,1.567 1.568,1.567 0.863,0 1.567,-0.7 1.567,-1.567 z"
           id="path304"
           style="fill:#000000" /><path
           d="m 28.9631,7.4891 c 0,-0.862 -0.704,-1.563 -1.567,-1.563 -0.864,0 -1.568,0.701 -1.568,1.563 v 7.595 c 0,0.867 0.704,1.566 1.568,1.566 0.863,0 1.567,-0.699 1.567,-1.566 z"
           id="path308"
           style="fill:#000000" /><path
           d="m 37.5627,11.7996 c 0,-0.862 -0.699,-1.561 -1.558,-1.561 -0.863,0 -1.567,0.699 -1.567,1.561 v 3.284 c 0,0.867 0.704,1.567 1.567,1.567 0.859,0 1.558,-0.7 1.558,-1.567 z"
           id="path312"
           style="fill:#000000" /></g><use
         xlink:href="#g383"
         transform="translate(34.4317)"
         id="use385"
         style="fill:#000000" /></g></g></svg>
