<?xml version="1.0" encoding="UTF-8" standalone="no"?>
<!-- Created with Inkscape (http://www.inkscape.org/) -->

<svg
   width="61.122936mm"
   height="52.934017mm"
   viewBox="0 0 61.122936 52.934017"
   version="1.1"
   id="svg1"
   inkscape:version="1.4 (e7c3feb100, 2024-10-09)"
   sodipodi:docname="icons.svg"
   inkscape:export-batch-path="../public/icons"
   inkscape:export-batch-name=""
   xml:space="preserve"
   xmlns:inkscape="http://www.inkscape.org/namespaces/inkscape"
   xmlns:sodipodi="http://sodipodi.sourceforge.net/DTD/sodipodi-0.dtd"
   xmlns="http://www.w3.org/2000/svg"
   xmlns:svg="http://www.w3.org/2000/svg"><sodipodi:namedview
     id="namedview1"
     pagecolor="#ffffff"
     bordercolor="#000000"
     borderopacity="0.25"
     inkscape:showpageshadow="2"
     inkscape:pageopacity="0.0"
     inkscape:pagecheckerboard="0"
     inkscape:deskcolor="#d1d1d1"
     inkscape:document-units="mm"
     inkscape:zoom="3.7745298"
     inkscape:cx="554.10876"
     inkscape:cy="487.21301"
     inkscape:window-width="2560"
     inkscape:window-height="1343"
     inkscape:window-x="2560"
     inkscape:window-y="2220"
     inkscape:window-maximized="1"
     inkscape:current-layer="layer3-5-1" /><defs
     id="defs1" /><g
     inkscape:groupmode="layer"
     id="layer3-5-1"
     inkscape:label="docker"
     transform="translate(-122.24587,-44.213516)"><path
       sodipodi:type="star"
       style="display:inline;fill:#42b5ac;fill-opacity:1;stroke:#000000;stroke-width:0.836999"
       id="path1-2-7-9-4"
       inkscape:flatsided="true"
       sodipodi:sides="6"
       sodipodi:cx="6.6796913"
       sodipodi:cy="6.2117114"
       sodipodi:r1="32.137733"
       sodipodi:r2="27.832094"
       sodipodi:arg1="0"
       sodipodi:arg2="0.52359878"
       inkscape:rounded="0"
       inkscape:randomized="0"
       d="m 38.817425,6.2117114 -16.068867,27.8320936 -32.1377334,0 -16.0688666,-27.8320936 16.0688666,-27.8320934 32.1377334,0 z"
       transform="matrix(0.93686559,0,0,0.93686559,146.54937,64.860986)"
       inkscape:label="Background" /><g
       id="g2"
       transform="matrix(0.10099971,0,0,0.10099971,126.7338,44.780802)"><path
         stroke="#066da5"
         stroke-width="38"
         d="m 296,220.97337 h 42 m -92,0 h 42 m -91,0 h 42 m -91,0 h 41 m -91,0 h 42 m 8,-46 h 41 m 8,0 h 42 m 7,0 h 42 m -42,-46 h 42"
         id="path1-6"
         style="fill:#000000;stroke:#000000;stroke-width:38.0006;stroke-dasharray:none;stroke-opacity:1" /><path
         fill="#066da5"
         d="m 472,228 c 0,0 -18,-17 -55,-11 -4,-29 -35,-46 -35,-46 0,0 -29,35 -8,74 -6,3 -16,7 -31,7 H 68 c -5,19 -5,145 133,145 99,0 173,-46 208,-130 52,4 61.61194,-43.25095 61.61194,-43.25095"
         id="path2-6"
         style="fill:none;stroke:#000000;stroke-width:11.7884;stroke-dasharray:none;stroke-opacity:1"
         sodipodi:nodetypes="ccccscscc" /></g></g></svg>
