<?xml version="1.0" encoding="UTF-8" standalone="no"?>
<!-- Created with Inkscape (http://www.inkscape.org/) -->

<svg
   width="61.122936mm"
   height="52.934017mm"
   viewBox="0 0 61.122936 52.934017"
   version="1.1"
   id="svg1"
   inkscape:version="1.4 (e7c3feb100, 2024-10-09)"
   sodipodi:docname="icons.svg"
   inkscape:export-batch-path="../public/icons"
   inkscape:export-batch-name=""
   xml:space="preserve"
   xmlns:inkscape="http://www.inkscape.org/namespaces/inkscape"
   xmlns:sodipodi="http://sodipodi.sourceforge.net/DTD/sodipodi-0.dtd"
   xmlns="http://www.w3.org/2000/svg"
   xmlns:svg="http://www.w3.org/2000/svg"><sodipodi:namedview
     id="namedview1"
     pagecolor="#ffffff"
     bordercolor="#000000"
     borderopacity="0.25"
     inkscape:showpageshadow="2"
     inkscape:pageopacity="0.0"
     inkscape:pagecheckerboard="0"
     inkscape:deskcolor="#d1d1d1"
     inkscape:document-units="mm"
     inkscape:zoom="3.7745298"
     inkscape:cx="554.10876"
     inkscape:cy="487.21301"
     inkscape:window-width="2560"
     inkscape:window-height="1343"
     inkscape:window-x="2560"
     inkscape:window-y="2220"
     inkscape:window-maximized="1"
     inkscape:current-layer="layer3-5-1" /><defs
     id="defs1" /><g
     inkscape:groupmode="layer"
     id="layer3-5"
     inkscape:label="linux"
     transform="translate(-122.24587,-44.213516)"><path
       sodipodi:type="star"
       style="display:inline;fill:#42b5ac;fill-opacity:1;stroke:#000000;stroke-width:0.836999"
       id="path1-2-7-9"
       inkscape:flatsided="true"
       sodipodi:sides="6"
       sodipodi:cx="6.6796913"
       sodipodi:cy="6.2117114"
       sodipodi:r1="32.137733"
       sodipodi:r2="27.832094"
       sodipodi:arg1="0"
       sodipodi:arg2="0.52359878"
       inkscape:rounded="0"
       inkscape:randomized="0"
       d="m 38.817425,6.2117114 -16.068867,27.8320936 -32.1377334,0 -16.0688666,-27.8320936 16.0688666,-27.8320934 32.1377334,0 z"
       transform="matrix(0.93686559,0,0,0.93686559,146.54937,64.860986)"
       inkscape:label="Background" /><g
       inkscape:label="Tux"
       id="layer1-3"
       transform="matrix(0.05033629,0,0,0.05033629,133.18808,52.306704)"><path
         inkscape:connector-curvature="0"
         style="color:#000000;font-style:normal;font-variant:normal;font-weight:normal;font-stretch:normal;font-size:medium;line-height:normal;font-family:'Bitstream Vera Sans';-inkscape-font-specification:'Bitstream Vera Sans';text-indent:0;text-align:start;text-decoration:none;text-decoration-line:none;letter-spacing:normal;word-spacing:normal;text-transform:none;writing-mode:lr-tb;direction:ltr;baseline-shift:baseline;text-anchor:start;display:inline;overflow:visible;visibility:visible;fill:#202020;fill-opacity:1;stroke:none;stroke-width:496.66;stroke-dasharray:none;marker:none;enable-background:accumulate"
         d="m 407.78259,-63.885865 c -5.50873,-0.01007 -11.25467,0.221097 -17.24663,0.698832 -151.44034,12.19639 -111.27731,172.185293 -113.52498,225.760433 -2.76559,39.17912 -10.7093,70.05493 -37.65515,108.35728 -31.65734,37.64621 -76.22729,98.57709 -97.34124,162.00402 -9.96481,29.93478 -14.70669,60.44635 -10.32746,89.32352 -1.3718,1.22846 -2.67777,2.51556 -3.91957,3.84127 -9.29459,9.92281 -16.16224,21.94573 -23.81454,30.04053 -7.149273,7.13157 -17.335189,9.84418 -28.528667,13.86011 -11.197757,4.01773 -23.49204,9.94102 -30.954745,24.26137 0,0 0,0.005 -0.005,0.007 -0.01218,0.0238 -0.02547,0.0461 -0.03816,0.0703 v 0 c -6.755617,12.61799 -4.747277,27.1486 -2.684066,40.61093 2.063272,13.46217 4.152016,26.18346 1.379482,34.81434 -8.862262,24.22286 -9.993724,40.9783 -3.754978,53.13208 6.252047,12.17909 19.106775,17.55476 33.635407,20.58924 29.057347,6.06892 68.408607,4.56076 100.529727,21.46622 32.12112,16.90546 65.7807,23.07106 92.63513,16.93731 19.4699,-4.44703 35.27484,-16.04026 43.39171,-33.87948 21.00445,-0.10329 44.05315,-8.9992 80.97431,-11.03212 25.04734,-2.01755 56.33588,8.8946 92.32544,6.89621 0.94075,3.90462 2.30228,7.66025 4.166,11.22902 0.0191,0.0367 0.037,0.073 0.0565,0.10928 13.95143,27.89813 39.87419,40.65877 67.49992,38.47853 27.66216,-2.18303 57.07262,-18.49393 80.30621,-46.39828 23.2336,-27.90436 60.84554,-39.2976 85.78528,-54.33966 12.46992,-7.52124 22.58833,-16.93894 23.37012,-30.61751 0.78137,-13.6717 -7.24514,-28.99303 -25.70186,-49.48067 l -0.005,-0.005 c -0.007,-0.009 -0.0144,-0.017 -0.0216,-0.0255 -6.06426,-6.85303 -8.95726,-19.55446 -12.06623,-33.08031 -3.10684,-13.51762 -6.57481,-28.09935 -17.67261,-37.54916 v 0 c -0.0222,-0.0196 -0.0446,-0.0371 -0.0668,-0.0565 v 0 c -4.41677,-3.84869 -9.00656,-6.46081 -13.62872,-8.21572 15.42945,-45.75986 9.37563,-91.32556 -6.19944,-132.50113 -19.115,-50.53385 -52.48693,-94.56634 -77.97362,-124.68843 -28.5282,-35.98392 -56.43129,-70.14776 -55.88163,-120.60662 0.84975,-77.011218 8.47096,-219.826209 -127.04556,-220.011161 z m 18.34628,118.643307 c 7.68981,0 14.25742,2.25397 21.0038,7.15062 6.85352,4.97429 11.79099,11.20136 15.77046,19.89724 3.90574,8.47479 5.78493,16.765228 5.96918,26.603428 0,0.25793 0,0.47896 0.0737,0.7369 0.0737,10.096 -1.65808,18.68131 -5.49019,27.45088 -2.18659,5.00397 -3.83608,8.34225 -6.84165,11.97834 -1.02037,-0.48987 -2.38783,-1.45323 -3.48693,-1.9052 v 0 c -7.61844,-3.263 -12.72417,-4.78563 -17.59504,-6.47579 1.76566,-2.12238 1.94347,-3.83944 3.23629,-6.98612 1.95288,-4.75319 2.9109,-9.39599 3.09513,-14.92295 0,-0.22114 0.0737,-0.40539 0.0737,-0.66331 0.1105,-5.30584 -0.58955,-9.83807 -2.13711,-14.4808 -1.62126,-4.86374 -3.6847,-8.364138 -6.66927,-11.275048 -2.98459,-2.91102 -5.96917,-4.2374 -9.54336,-4.34805 -0.16756,-0.0101 -0.33463,-0.0101 -0.49969,-0.0101 -3.36198,0.0101 -6.28124,1.16298 -9.30153,3.6916 -3.16882,2.65307 -5.527,6.042818 -7.47993,10.759258 -1.95287,4.71634 -2.9109,9.39585 -3.09508,14.95979 -0.037,0.22114 -0.037,0.40539 -0.037,0.62643 -0.0637,3.05835 -0.0541,4.62918 0.41757,7.34978 -7.37144,-2.87387 -13.48487,-5.82623 -19.56895,-7.2743 -0.34682,-2.63091 -0.23971,-4.05341 -0.30376,-6.89209 v -0.77387 c -0.11056,-10.05921 1.54757,-18.681298 5.4165,-27.450778 3.86894,-8.76959 8.65901,-15.07045 15.40197,-20.19214 6.74295,-5.12168 13.37535,-7.47985 21.22375,-7.55355 h 0.36733 z m -105.25063,8.33313 c 5.10126,0.0121 9.66594,1.71632 14.38753,5.48676 5.1217,4.08989 8.99062,9.32212 12.23314,16.69153 3.24251,7.3694 4.97432,14.738698 5.45331,23.434588 v 0.0732 c 0.23218,3.65219 0.38842,4.68981 0.10053,8.01927 -1.00892,0.28676 -3.04387,1.1817 -4.01239,1.51514 -5.31288,2.17031 -9.27095,3.88899 -13.49591,6.6788 0.41314,-2.91831 0.25923,-3.47907 -0.0576,-6.78051 -0.0371,-0.18425 -0.0371,-0.33162 -0.0371,-0.51578 -0.44217,-4.38478 -1.36333,-8.06945 -2.91089,-11.79101 -1.65808,-3.86877 -3.50045,-6.59553 -5.93236,-8.69586 -2.20386,-1.903278 -4.28619,-2.777298 -6.57714,-2.759988 -0.23701,0 -0.47671,0.0131 -0.71849,0.0332 -2.57929,0.2209 -4.7164,1.47368 -6.743,3.942498 -2.02656,2.46871 -3.35302,5.52702 -4.31104,9.58008 -0.95803,4.05318 -1.21596,8.03266 -0.81066,12.6016 0,0.18416 0.0371,0.33171 0.0371,0.51586 0.44211,4.42167 1.32645,8.10626 2.91088,11.82791 1.62126,3.83204 3.50045,6.55868 5.93236,8.65891 0.40727,0.35174 -0.4011,-0.28228 0,0 -2.52954,1.94681 -3.26463,2.80963 -5.33747,4.33275 -1.32948,0.97552 -2.85132,2.26012 -4.69168,3.61666 -4.01343,-3.75973 -6.4674,-7.6233 -9.20492,-13.84488 -3.24251,-7.36927 -4.97432,-14.73871 -5.49018,-23.4346 v -0.0732 c -0.47899,-8.69577 0.36847,-16.17572 2.76352,-23.913518 2.39505,-7.73789 5.60075,-13.33852 10.2434,-17.94451 4.6427,-4.60579 9.32229,-6.92711 14.95985,-7.2218 0.44042,-0.0242 0.87692,-0.0352 1.30918,-0.0332 z m 47.86748,60.328528 c 11.85658,-0.0458 26.986,3.22593 44.2591,14.33177 10.60991,6.89962 18.00409,8.0917 37.0146,16.23383 l 0.0228,0.0101 0.0233,0.009 c 9.14674,3.75287 14.51541,8.64454 17.13839,13.7956 2.62293,5.15116 2.68708,10.73707 0.49165,16.61331 -4.39072,11.75274 -18.40589,24.12121 -38.07313,30.2628 l -0.0186,0.008 -0.0175,0.008 c -9.58965,3.11567 -17.95175,9.9961 -27.81012,15.63339 -9.85808,5.63699 -21.01325,10.1836 -36.18123,9.30614 0,-8e-5 0,0 0,0 -12.91279,-0.75261 -20.63157,-5.1363 -27.61094,-10.74548 -6.97955,-5.60927 -13.0616,-12.65611 -21.96762,-17.88568 l -0.0228,-0.0137 -0.0233,-0.0137 c -14.34552,-8.10836 -22.1775,-17.48651 -24.63551,-25.6166 -2.45809,-8.13013 -0.15126,-15.06986 6.96633,-20.40398 8.00219,-5.99706 13.56097,-10.07641 17.26382,-12.79381 3.67848,-2.69928 5.2089,-3.71141 6.3803,-4.8362 0.006,-0.009 0.0123,-0.0128 0.0185,-0.0183 l 0.005,-0.009 c 6.01265,-5.69136 15.59728,-16.06039 30.04507,-21.0337 4.97264,-1.71177 10.52135,-2.81616 16.73192,-2.8407 z m 100.19798,72.30959 c 12.91771,50.92115 42.9627,124.47072 62.27343,160.36425 10.26433,19.04333 30.68512,59.50377 39.50787,108.25133 14.59742,0.1059 28.84392,4.93725 41.96042,11.13234 37.02795,18.03073 50.72215,33.70986 44.13786,55.109 -2.16863,-0.0761 -4.30183,-0.0675 -6.38252,-0.0175 -0.19419,0.005 -0.38692,0.0101 -0.58039,0.0148 5.36205,-16.9624 -6.5167,-29.47308 -38.16979,-43.79469 -32.83054,-14.44394 -58.99175,-13.00693 -63.41335,16.28631 -0.28298,1.53469 -0.51061,3.09853 -0.68399,4.68414 -2.45279,0.85176 -4.91893,1.93925 -7.39125,3.29204 -15.41611,8.43525 -23.8304,23.7408 -28.51025,42.51314 -4.67608,18.75716 -6.01663,41.43346 -7.30717,66.92419 v 0.0132 c -0.78851,12.81759 -6.05827,30.15383 -11.40294,48.5158 -53.78147,38.36325 -128.42502,54.98431 -191.80023,11.73339 -4.29494,-6.79423 -9.2218,-13.52602 -14.29316,-20.16546 -3.2385,-4.23996 -6.56524,-8.454 -9.87265,-12.60867 6.5058,0.005 12.03576,-1.06037 16.50509,-3.08692 5.55787,-2.52017 9.46294,-6.56804 11.39488,-11.76454 3.86384,-10.39316 -0.0169,-25.0546 -12.38629,-41.79711 -12.36863,-16.74135 -27.31667,-41.63553 -58.09851,-60.51358 0,0 -0.005,0 -0.005,-0.005 -8.20489,-5.14557 -14.49497,-15.75275 -15.04498,-35.2117 0.97573,-34.64244 3.24887,-63.97344 17.13748,-97.02138 20.22983,-45.85661 62.54332,-125.37763 65.90401,-188.75699 1.73273,1.25821 7.68701,5.27572 10.34013,6.78451 0.005,0.008 0.0117,0.008 0.017,0.009 7.76249,4.57119 13.59244,11.25324 21.14318,17.32153 7.5657,6.0803 17.01729,11.33203 31.29675,12.16406 v 0 c 16.66707,0.96445 29.36983,-4.19787 39.77727,-10.14905 10.39178,-5.94216 18.69349,-12.51837 26.55852,-15.08535 0.0123,-0.008 0.0239,-0.008 0.0355,-0.0113 16.61951,-5.19718 29.83377,-14.39595 37.35342,-25.12494 z m 109.44251,292.85232 c 16.23161,-0.5312 27.1825,7.9187 36.10867,11.91195 24.02409,11.09092 28.82599,16.67895 22.26728,30.64391 -5.527,10.53819 -31.61238,31.01833 -52.32498,26.34674 -27.29418,-8.52423 -24.63222,-31.42912 -25.07573,-50.83975 1.44083,-12.23549 8.86135,-18.01534 19.02476,-18.06285 z m -31.06472,31.59652 c 1.35802,22.03362 12.25934,44.50549 31.53855,49.36899 21.09753,5.55873 51.51581,-12.54314 64.35873,-27.3081 2.62335,-3.6025 2.93953,-6.47799 5.37102,-6.53668 11.26569,-0.27202 21.78681,4.15622 30.3573,11.54924 8.57049,7.39302 13.69977,19.78066 16.75837,33.08742 3.05844,13.3068 4.48063,29.44379 17.897,44.40498 13.41636,14.96118 21.17472,28.42776 20.69226,36.86995 -0.48253,8.44241 -6.94188,15.02815 -18.22898,21.83573 -22.56443,13.60962 -61.26216,24.56404 -86.79908,55.49664 -22.17411,26.3884 -52.11425,43.55522 -75.92705,45.43462 -23.81279,1.87925 -44.46387,-11.81886 -56.57633,-36.12959 v 0 0 c -7.51419,-14.29408 -3.30082,-33.44494 3.02911,-57.23919 6.33007,-23.79442 14.43234,-52.02985 15.64977,-71.88758 v 0 0 c 1.28789,-25.44312 3.72729,-52.43164 8.00126,-69.57569 4.27391,-17.14405 11.92636,-25.76651 23.85056,-32.29112 0.15806,5.1398 0.19943,5.17253 0.13012,4.36435 z m -380.30945,2.31479 c 13.49768,2.04462 25.3064,13.77798 36.64667,29.15948 11.34037,15.38173 22.14616,35.88266 31.94145,56.65301 9.7953,20.77036 28.45457,40.74841 44.04233,61.15623 15.58768,20.4078 25.64774,38.19619 23.84014,59.47394 -1.80761,21.27776 -16.67636,37.38106 -39.83229,42.67 -23.14903,5.28718 -53.32695,-0.71387 -86.35268,-18.09579 -33.02573,-17.38191 -70.04199,-14.56139 -96.505687,-20.08849 -13.235445,-2.76443 -25.906054,-3.27364 -29.869795,-10.99544 -3.964013,-7.72153 -4.556307,-22.44325 1.773418,-40.45493 6.329724,-18.01167 3.746918,-32.81348 1.724443,-46.00983 -2.022476,-13.19641 -4.511543,-26.4344 0.646848,-36.21679 5.158391,-9.78239 13.912895,-13.84584 24.415706,-17.61385 10.502751,-3.76822 22.933827,-7.1893 32.447787,-16.9653 9.51396,-9.776 17.81644,-22.04835 25.80909,-30.58129 10.71756,-9.95566 15.57741,-14.12182 29.27257,-12.09095 z"
         id="path154"
         sodipodi:nodetypes="ccccscsccccccsccscscccccscsscccccccccscccccscccsccccsccsccccsccccccssccccsscccccccccccsscccccccsccsccccccccccccccsccscccssccccsccccccccccccssccccscssscccccccsccscccccccccccccscccsscscccscccsccccscscscsccsccccc" /><g
         id="g4618"
         transform="translate(663.39852,224.81338)"><path
           sodipodi:nodetypes="sscccccssszzs"
           style="fill:#202020;fill-opacity:1"
           inkscape:connector-curvature="0"
           id="path11"
           d="m -245.31131,-29.04609 c -15.64075,8.1527 -33.91,18.04 -53.35,18.04 -19.43,0 -34.78,-8.98 -45.82,-17.73 -5.52,-4.37 -10,-8.72 -13.38,-11.88 -5.86434,-4.62903 -5.16188,-11.12168 -2.75246,-10.93 4.03863,0.50418 7.35719,4.590806 9.90038,6.969126 3.44,3.22 8.48853,8.128525 13.70853,12.268525 10.44,8.27 21.4059,12.873554 38.8359,12.873554 17.4,0 34.51147,-8.245773 46.90973,-15.200603 7.02421,-3.94024 16.70076,-10.756925 23.9951,-16.111245 5.58072,-4.09647 7.34662,-7.305987 11.95449,-6.768937 4.60786,0.53705 1.19917,5.45984 -5.25377,11.09153 -6.45295,5.63169 -16.54818,13.10397 -24.7479,17.37805 z" /><path
           style="opacity:1;fill:#202020;fill-opacity:1;stroke:none"
           d="m -284.1147,-85.8664 c 0.20444,2.313731 3.26122,3.144456 5.23,4.20753 1.84006,0.993563 3.89663,2.208314 5.96921,1.930103 1.81074,-0.243063 4.45494,-1.179594 4.58578,-3.001883 0.17232,-2.399887 -3.17083,-3.90165 -5.41255,-4.77563 -2.88469,-1.12471 -6.58056,-1.69534 -9.28659,-0.19073 -0.6201,0.34477 -1.29689,1.15328 -1.08585,1.83064 0,0 0,-4e-5 0,-3e-5 z"
           id="path28396-7"
           inkscape:connector-curvature="0"
           sodipodi:nodetypes="saaaaaas" /><path
           sodipodi:nodetypes="saaaaaas"
           inkscape:connector-curvature="0"
           id="path5461"
           d="m -303.87905,-85.8664 c -1.37238,1.493659 -3.39439,2.966756 -5.31704,4.120495 -1.65179,0.991203 -3.35203,2.510663 -5.27291,2.365282 -2.05463,-0.155504 -5.04042,-1.295333 -5.19504,-3.350027 -0.18055,-2.399282 3.17083,-3.90165 5.41255,-4.77563 2.88469,-1.12471 6.58056,-1.69534 9.28659,-0.19073 0.6201,0.34477 1.29689,1.15328 1.08585,1.83064 0,0 1e-5,-3.8e-5 0,-3e-5 z"
           style="opacity:1;fill:#202020;fill-opacity:1;stroke:none" /></g></g></g></svg>
