<svg xmlns="http://www.w3.org/2000/svg" viewBox="0 0 64 64" width="64" height="64" color="#56575c"><path d="M59.72 40.28 Q59.72 43.48 57.45 45.74 L45.74 57.45 Q43.48 59.72 40.28 59.72 L23.72 59.72 Q20.52 59.72 18.26 57.45 L6.55 45.74 Q4.28 43.48 4.28 40.28 L4.28 23.72 Q4.28 20.52 6.55 18.26 L18.26 6.55 Q20.52 4.28 23.72 4.28 L40.28 4.28 Q43.48 4.28 45.74 6.55 L57.45 18.26 Q59.72 20.52 59.72 23.72 Z" fill="currentColor"/><g fill="none" stroke="#0f1a17" stroke-width="2.6" stroke-linecap="round" stroke-linejoin="round"><path d="M16 30l16-13 16 13M20 27v19h24V27"/><path d="M25 36.5a9.5 9.5 0 0 1 14 0M28.5 40a5 5 0 0 1 7 0"/><circle cx="32" cy="43.5" r="1.3" fill="#0f1a17" stroke="none"/></g></svg>
