<?xml version="1.0" encoding="UTF-8" standalone="no"?>
<!-- Created with Inkscape (http://www.inkscape.org/) -->

<svg
   width="52.915615mm"
   height="52.87455mm"
   viewBox="0 0 52.915615 52.87455"
   version="1.1"
   id="svg1"
   xml:space="preserve"
   xmlns="http://www.w3.org/2000/svg"
   xmlns:svg="http://www.w3.org/2000/svg"><defs
     id="defs1" /><g
     id="layer3"
     transform="translate(-133.84341,-2.6498307)"><path
       style="display:inline;fill:#42b5ac;fill-opacity:1;stroke:#000000;stroke-width:1.28087;stroke-dasharray:none"
       id="path1-2-6-0-0"
       d="M 38.817425,6.2117114 29.404501,28.936521 6.6796913,38.349445 -16.045118,28.936521 -25.458042,6.2117114 l 9.412924,-22.7248094 22.7248093,-9.412924 22.7248097,9.412924 z"
       transform="matrix(0.80588043,0.33280506,-0.33306353,0.80525501,156.98708,21.862059)" /><path
       id="rect4-8-3"
       style="fill:none;stroke:#000000;stroke-width:1.6;stroke-linecap:round;stroke-dasharray:none"
       d="m 152.80807,39.794343 h -10.05573 c -1.0919,0 -1.97706,-0.885158 -1.97706,-1.977055 V 17.34722 m 12.03279,22.447123 h 10.05573 c 1.0919,0 1.97706,-0.885158 1.97706,-1.977055 V 17.34722"
       transform="translate(7.4931438,5.1873674)" /><path
       style="fill:none;stroke:#000000;stroke-width:1.6;stroke-linecap:round;stroke-dasharray:none;stroke-dashoffset:0.6;stroke-opacity:1"
       d="M 133.48906,18.664703 150.93202,8.3687227 a 3.6907049,3.6907049 180 0 1 3.7521,0 l 17.44296,10.2959803"
       id="path7"
       transform="translate(7.4931569,4.5938422)" /><path
       style="fill:none;stroke:#000000;stroke-width:1.6;stroke-linecap:round;stroke-dasharray:none;stroke-dashoffset:0.6;stroke-opacity:1"
       d="m 151.42891,30.660633 c 8.87416,-10.777194 17.74466,0 17.74466,0"
       id="path9" /><path
       style="fill:none;stroke:#000000;stroke-width:1.6;stroke-linecap:round;stroke-dasharray:none;stroke-dashoffset:0.6;stroke-opacity:1"
       d="m 154.49383,32.250711 c 5.80741,-6.494259 11.61478,0 11.61478,0"
       id="path9-6" /><path
       style="fill:none;stroke:#000000;stroke-width:1.6;stroke-linecap:round;stroke-dasharray:none;stroke-dashoffset:0.6;stroke-opacity:1"
       d="m 156.73665,35.171884 c 3.51891,-4.035944 6.64185,0 6.64185,0"
       id="path9-6-2" /><circle
       style="fill:#000000;fill-opacity:1;stroke:#000000;stroke-width:1.10772;stroke-linecap:square;stroke-dasharray:none;stroke-dashoffset:0.6;stroke-opacity:1"
       id="path10"
       cx="160.05757"
       cy="38.570122"
       r="1.0904539" /></g></svg>
